<?xml version="1.0" encoding="utf-8"?>
<!-- Generator: Adobe Illustrator 18.1.1, SVG Export Plug-In . SVG Version: 6.00 Build 0)  -->
<svg version="1.1" id="Layer_1" xmlns="http://www.w3.org/2000/svg" xmlns:xlink="http://www.w3.org/1999/xlink" x="0px" y="0px"
	 viewBox="0 0 85 30" enable-background="new 0 0 85 30" xml:space="preserve">
<g>
	<g>
		<path fill="rgba(69, 123, 154, 1)" d="M34.1,2.4h-5.9l2.1,10.9L24.3,2.4h-5.9L22,20.6h5.9l-1-5l2.6,5h8.2L34.1,2.4z M8.3,16.1
			c2,1,3.2,1.8,3.7,2.2c0.5,0.4,0.8,1.2,1.1,2.3h6.7c0,0,0-0.1,0-0.1c-0.5-2.4-1.2-4.1-2.2-5.2c-1-1.1-3.3-2.4-6.7-4.1
			c-1.2-0.6-2-1.1-2.3-1.5c-0.3-0.4-0.6-1-0.7-1.8c-0.1-0.6-0.1-1.1,0-1.4C8,6.1,8.3,6,8.7,6c0.4,0,0.7,0.1,0.9,0.3s0.4,0.8,0.6,1.6
			l0.4,1.8h6.5l-0.2-1c-0.4-1.9-0.9-3.3-1.4-4.1c-0.6-0.8-1.6-1.5-3-2c-1.4-0.5-3-0.8-4.8-0.8C6,1.9,4.6,2.1,3.5,2.6
			c-1.1,0.5-1.8,1.2-2.2,2C1,5.5,1,6.8,1.4,8.7C1.6,10,2,11,2.5,11.9c0.5,0.8,1.1,1.5,1.8,2C5,14.3,6.3,15,8.3,16.1z M49.1,2.4H39
			l0.9,18.2h15.9L49.1,2.4z M46.1,18c-0.2-2.2-0.5-5.6-0.7-10.2c1.2,4.1,2.2,7.5,3.1,10.2H46.1z M70.9,9.2c-0.3-1.5-0.6-2.6-0.9-3.4
			c-0.3-0.7-0.8-1.3-1.4-1.9C67.9,3.4,67,3,66,2.8c-1.1-0.3-2.6-0.4-4.5-0.4h-7.1l3.6,18.2h7l-0.7-3.7h1.9c1.5,0,2.7-0.2,3.6-0.6
			s1.4-0.9,1.6-1.6c0.2-0.7,0.2-1.8-0.1-3.4L70.9,9.2z M65.2,12.3c-0.2,0.3-0.6,0.4-1.3,0.4c-0.1,0-0.3,0-0.5,0l-1.2-6.2
			c0.9,0,1.5,0.1,1.9,0.4c0.3,0.3,0.6,0.8,0.8,1.6l0.4,2C65.4,11.4,65.4,12,65.2,12.3z M81.3,20.6L78.8,2.4h-7.4L76,20.6H81.3z
			 M9.9,18H3.4l0.3,1.6c0.1,0.4,0.2,0.7,0.2,1h6.5L9.9,18z M49.8,23.3l0.9,3.3h7.2l-1.2-3.3H49.8z M58.5,23.3l0.7,3.3h7l-0.7-3.3
			H58.5z M82.4,23.3H76l0.7,3.3H83L82.4,23.3z M31,23.3l1.8,3.3h6.2l-0.7-3.3H31z M22.5,23.3l0.7,3.3h5.9l-0.7-3.3H22.5z M5.2,23.8
			c0.6,1,1.6,1.8,3.1,2.4c1.5,0.6,3.1,1,5,1c1.7,0,3.2-0.3,4.4-0.8c1.2-0.6,1.9-1.2,2.2-2.1c0.1-0.3,0.1-0.6,0.2-0.9H4.9
			C5,23.5,5.1,23.6,5.2,23.8z M40,23.3l0.2,3.3h7.3l-0.3-3.3H40z"/>
	</g>
</g>
</svg>
