<svg version="1" xmlns="http://www.w3.org/2000/svg" width="933.333" height="933.333" viewBox="0 0 700.000000 700.000000"><path d="M299 196.7c-1.9.2-5.6 1.1-8.2 1.9l-4.6 1.5 2.5 4.4c3.2 5.8 12.5 14.2 18.8 17.1 10.2 4.6 21 5.2 31.7 1.8l4.7-1.5-3-4.9c-8.4-13.7-25.5-21.9-41.9-20.3zM217.2 249c-11.6 2.1-24.3 8.1-29.6 13.9-2.8 3.1-2.4 8 .9 10.8 3.4 3 6.2 2.5 11.6-1.8 10.8-8.6 28.5-11 46.4-6.4 7.8 2 21.2 8.4 25.6 12.2 14.9 12.9 40.5 30.2 59.9 40.6 9.1 4.8 28.2 13.7 29.5 13.7.9 0 .5-9.5-.5-13.1-.9-3.2-1.8-4-9.3-7.4-19.3-9-40.7-22.5-63.7-40.3-14.8-11.4-25.3-17.1-37.6-20.2-9.1-2.4-25.5-3.3-33.2-2zM375.7 329c-2 3.3-3.7 6.2-3.7 6.5 0 .6 3.8 2.2 7.5 3.1 2.3.6 2.5.3 2.5-2.9 0-4.9-1.2-12.7-1.9-12.7-.3 0-2.3 2.7-4.4 6zM146 328.8c0 1.1 1.3 7.2 3 13.5 11.7 45.4 39.6 84 77.9 107.9l7.5 4.7 11.1-7.7c6-4.1 12.2-8.4 13.7-9.5l2.7-2-7.5-3.3c-4.2-1.8-12.4-6.3-18.2-10-29.4-18.5-56.2-45.7-81.1-82.3-5.7-8.4-9.1-12.7-9.1-11.3zM397.3 336c-4.6 7.1-4.6 6.9 2.5 8.4l3.2.8-.1-4.9c-.1-2.6-.4-6.2-.8-7.8l-.7-3-4.1 6.5zM418 340c-2.3 3.4-3.8 6.5-3.4 7 2.1 1.7 20 3.2 48.4 4 31.5.8 35 1.3 50 6.2 3.6 1.1 9.8 3.6 13.9 5.5l7.4 3.3-.7-5.2c-.3-2.9-.6-6.4-.6-7.8 0-4.1-1.2-4.9-11.6-8.6-18.3-6.6-24.6-7.5-58.9-8.4-17-.5-33.1-1.2-35.6-1.6l-4.7-.6-4.2 6.2zM695.8 353c-5 3-27.8 9.3-45.3 12.5-13.7 2.6-47 3.2-61 1.1-6.1-.9-11.7-1.6-12.5-1.6-1.4 0-11.6 11.8-10.8 12.5.6.5 16.2 3.5 24.3 4.6 4.4.5 15.7 1 25.1 1 25.7-.1 47-3.3 70.7-10.8 12.5-3.9 12.4-3.8 12.8-10.8.3-5.2-.1-9.5-.8-9.5-.5 0-1.5.5-2.5 1zM551.2 365.3l-4.2 6.2 5.2 1.7c2.8 1 5.4 1.6 5.6 1.3.3-.3-.1-3.8-.9-7.9l-1.4-7.4-4.3 6.1z"/></svg>